Coordinates
version=1
nRows=8
nColumns=46
inDegrees=yes

Units are S.I. units (second, meters, Newtons, ...)
Angles are in degrees.

endheader
time	pelvis_tilt	pelvis_list	pelvis_rotation	pelvis_tx	pelvis_ty	pelvis_tz	bb_angle	bb_tx	bb_ty	bb_tz	hip_flexion_r	hip_adduction_r	hip_rotation_r	knee_angle_r	knee_angle_r_beta	ankle_angle_r	subtalar_angle_r	mtp_angle_r	crank_angle_r	hip_flexion_l	hip_adduction_l	hip_rotation_l	knee_angle_l	knee_angle_l_beta	ankle_angle_l	subtalar_angle_l	mtp_angle_l	crank_angle_l	lumbar_extension	lumbar_bending	lumbar_rotation	arm_flex_r	arm_add_r	arm_rot_r	elbow_flex_r	pro_sup_r	wrist_flex_r	wrist_dev_r	arm_flex_l	arm_add_l	arm_rot_l	elbow_flex_l	pro_sup_l	wrist_flex_l	wrist_dev_l
      0.00000000	    -12.57343404	     -3.55461541	      1.50360200	      0.07204128	      1.09711895	     -0.28015956	      0.00000000	      0.50000000	      0.00000000	      0.25000000	     76.24099998	     -3.89767551	     -0.99886726	     84.76146051	      1.47936656	     10.92787455	     -8.41325343	      0.00000000	      0.00000000	     45.82359962	     -9.55617608	      0.27151385	     72.66076174	      1.26816953	     15.48445162	     -1.37234248	      0.00000000	      0.00000000	    -54.40364933	      0.92043037	      3.94086694	     89.19343885	    -12.41019616	     41.33305643	     27.21768598	     30.84077300	      0.00000000	      0.00000000	     88.83506626	     -5.50830688	     42.10235423	     29.94471151	     32.95310049	      0.00000000	      0.00000000
      0.00500000	    -12.58746172	     -3.55984887	      1.49420765	      0.07201885	      1.09713232	     -0.28013094	      0.00000000	      0.50000000	      0.00000000	      0.25000000	     76.23841109	     -3.88899944	     -1.00761078	     84.72586887	      1.47874537	     10.94460739	     -8.41406363	      0.00000000	      0.00000000	     45.85103558	     -9.57190617	      0.26918210	     72.67632178	      1.26844110	     15.44174878	     -1.35611754	      0.00000000	      0.00000000	    -54.38807200	      0.91122714	      3.96143435	     89.18398318	    -12.18399274	     40.37164226	     26.93427997	     31.45339759	      0.00000000	      0.00000000	     88.85183731	     -5.26823221	     41.39655600	     29.59659813	     33.51114408	      0.00000000	      0.00000000
      0.01000000	    -12.61341805	     -3.55952416	      1.48000723	      0.07201058	      1.09707234	     -0.28007992	      0.00000000	      0.50000000	      0.00000000	      0.25000000	     76.25848377	     -3.88045858	     -1.01438156	     84.71699062	      1.47859042	     10.97353897	     -8.39115982	      0.00000000	      0.00000000	     45.88895727	     -9.58520201	      0.26521371	     72.70001744	      1.26885467	     15.44812378	     -1.33743574	      0.00000000	      0.00000000	    -54.34831190	      0.90738895	      3.98099812	     89.18368443	    -12.06233616	     40.04294640	     26.71698850	     31.98462090	      0.00000000	      0.00000000	     88.85633868	     -5.15629742	     41.16657809	     29.39114093	     33.99416358	      0.00000000	      0.00000000
      0.01500000	    -12.58379132	     -3.58144609	      1.47168791	      0.07197677	      1.09714745	     -0.28015585	      0.00000000	      0.50000000	      0.00000000	      0.25000000	     76.19393072	     -3.87583318	     -1.03337036	     84.68303127	      1.47799772	     10.97844730	     -8.29302594	      0.00000000	      0.00000000	     45.85216546	     -9.54237202	      0.34471444	     72.71948751	      1.26919449	     15.48995144	     -1.51261470	      0.00000000	      0.00000000	    -54.36472512	      0.93840843	      3.96532996	     89.19773314	    -12.25054951	     40.98397505	     26.64406324	     32.92514231	      0.00000000	      0.00000000	     88.87545733	     -5.49627415	     42.02055611	     29.44197954	     34.94969148	      0.00000000	      0.00000000
      0.02000000	    -12.63041388	     -3.63377765	      1.47859250	      0.07190841	      1.09725048	     -0.28018887	      0.00000000	      0.50000000	      0.00000000	      0.25000000	     76.21635057	     -3.90387853	     -1.13243791	     84.65884856	      1.47757565	     11.04323756	     -8.36158142	      0.00000000	      0.00000000	     45.92037691	     -9.58009791	      0.39804842	     72.71688740	      1.26914911	     15.42838419	     -1.45335934	      0.00000000	      0.00000000	    -54.31973224	      1.00865928	      4.02806970	     89.20570419	    -12.33260877	     41.12850629	     26.68567648	     33.20801361	      0.00000000	      0.00000000	     88.89866660	     -5.57928580	     42.38072818	     29.40516655	     35.29085052	      0.00000000	      0.00000000
      0.02500000	    -12.41299610	     -3.67885467	      1.51851994	      0.07192051	      1.09774841	     -0.28027526	      0.00000000	      0.50000000	      0.00000000	      0.25000000	     75.92620566	     -3.92521727	     -1.21836211	     84.60119254	      1.47656936	     11.06124391	     -8.41278064	      0.00000000	      0.00000000	     45.67738681	     -9.59290954	      0.46547337	     72.68324769	      1.26856198	     15.50039499	     -1.39179261	      0.00000000	      0.00000000	    -54.67684713	      1.07171902	      4.08926146	     89.17830094	    -12.42086750	     39.97812558	     27.43862051	     33.67704324	      0.00000000	      0.00000000	     88.81282295	     -5.60768897	     41.22958534	     30.19052269	     35.68668676	      0.00000000	      0.00000000
      0.03000000	    -12.63712795	     -3.64797122	      1.44918198	      0.07189125	      1.09730061	     -0.28013957	      0.00000000	      0.50000000	      0.00000000	      0.25000000	     76.18638210	     -3.87063533	     -1.14017783	     84.59527069	      1.47646601	     11.08137529	     -8.30112207	      0.00000000	      0.00000000	     45.95055914	     -9.62326052	      0.38243167	     72.76383190	      1.26996844	     15.43602112	     -1.40272674	      0.00000000	      0.00000000	    -54.30288471	      0.99914123	      4.09724894	     89.19797047	    -12.08662281	     40.09782518	     26.39458403	     33.69190419	      0.00000000	      0.00000000	     88.88838663	     -5.16634331	     41.32445887	     28.95982315	     35.65019520	      0.00000000	      0.00000000
      0.03500000	    -12.31478785	     -3.59074200	      1.43761331	      0.07197480	      1.09807676	     -0.28014087	      0.00000000	      0.50000000	      0.00000000	      0.25000000	     75.78455957	     -3.85920704	     -1.09097808	     84.53733029	      1.47545475	     11.09396128	     -8.33739414	      0.00000000	      0.00000000	     45.49520790	     -9.59368060	      0.34382494	     72.63430229	      1.26770772	     15.63847710	     -1.22945185	      0.00000000	      0.00000000	    -54.85258095	      0.93240363	      4.12436139	     89.11717593	    -12.26918179	     38.06229677	     27.65055470	     34.49290821	      0.00000000	      0.00000000	     88.74318729	     -5.22555994	     39.48013743	     30.36110255	     36.34384263	      0.00000000	      0.00000000
